<svg width="48" height="48" viewBox="0 0 48 48" fill="none" xmlns="http://www.w3.org/2000/svg">
  <!-- Document shape with folded corner -->
  <path
    d="M8 4C8 2.89543 8.89543 2 10 2H30C30.5523 2 31 2.44772 31 3V15C31 15.5523 31.4477 16 32 16H42C42.5523 16 43 16.4477 43 17V44C43 45.1046 42.1046 46 41 46H10C8.89543 46 8 45.1046 8 44V4Z"
    fill="#2563eb"
  />
  <!-- Folded corner -->
  <path
    d="M32 16L42 6V15C42 15.5523 41.5523 16 41 16H32Z"
    fill="#1e40af"
  />
  <!-- Text lines -->
  <line x1="14" y1="24" x2="34" y2="24" stroke="white" stroke-width="1.5" stroke-linecap="round" />
  <line x1="14" y1="28" x2="30" y2="28" stroke="white" stroke-width="1.5" stroke-linecap="round" />
  <line x1="14" y1="32" x2="28" y2="32" stroke="white" stroke-width="1.5" stroke-linecap="round" />
  <line x1="14" y1="36" x2="32" y2="36" stroke="white" stroke-width="1.5" stroke-linecap="round" />
  <!-- Lightning bolt -->
  <path
    d="M24 12L20 20H24L22 28L28 20H24L24 12Z"
    fill="white"
  />
</svg>
